<svg width="520" height="520" viewBox="0 0 520 520" fill="none" xmlns="http://www.w3.org/2000/svg">
<g filter="url(#filter0_d_214_313)">
<rect x="4.00002" y="-0.000732422" width="512" height="512" rx="64" fill="white"/>
<path d="M232.448 374.841C235.688 369.496 243.985 369.089 247.841 374.087L248.422 374.841V413.101C248.422 416.386 246.718 419.479 243.822 421.449L240.755 423.536L199.222 441.507H318.709L277.176 421.797C274.369 419.978 272.703 417.041 272.703 413.912V254.495C272.703 253.968 272.901 253.457 273.264 253.046L432.919 72.7354C433.49 72.0901 433.032 71.0725 432.17 71.0725H341.073C332.921 70 332.921 57 341.073 56H454.17C459.025 57.1747 461.355 62.1891 458.892 66.1626L458.004 67.5942L288.612 256.52C288.241 256.934 288.038 257.45 288.038 257.983V410.783L363.437 441.507C370.307 444.301 370.05 453.228 363.029 455.694L362.159 456H156.411L155 454.254C151.806 450.303 152.415 444.803 156.411 441.507L232.448 410.783V374.841Z" fill="black"/>
<path d="M279.732 56H305.29C305.534 56.0753 305.789 56.1243 306.04 56.1639C313.924 57.4059 313.796 70.0169 305.656 71.0725H279.732C271.938 70 271.938 57 279.732 56Z" fill="black"/>
<path d="M65.0383 56H243.311C250.944 57 250.944 70 243.311 71.0725L88.7213 70.8693C87.8581 70.8682 87.3991 71.8877 87.9722 72.5332L247.213 251.883C247.582 252.296 247.783 252.812 247.783 253.343V342.377C245.015 348.657 235.217 348.657 232.448 342.377V259.137C232.448 258.607 232.249 258.094 231.883 257.682L61.2028 64.9109C58.517 61.5604 60 56 65.0383 56Z" fill="black"/>
<path d="M156.193 94H132.984C128.691 94 126.394 99.054 129.217 102.288L184.833 166L338.032 166L395.809 102.361C398.726 99.1483 396.447 94 392.107 94L376.822 94C376.316 94 375.812 94.077 375.328 94.2284L346.531 103.245L303.549 113.956C298.298 115.265 292.79 115.129 287.61 113.562L277.908 110.628C271.933 108.821 265.58 108.664 259.523 110.174L248.087 113.024C228.993 117.782 208.773 113.318 193.457 100.963C187.872 96.4572 180.913 94 173.737 94H156.193Z" fill="#0057B8"/>
<path d="M184.964 166L250.709 242.56C254.581 247.069 261.507 247.226 265.579 242.897L337.919 166H184.964Z" fill="#FFD700"/>
</g>
<defs>
<filter id="filter0_d_214_313" x="2.28882e-05" y="-0.000732422" width="520" height="520" filterUnits="userSpaceOnUse" color-interpolation-filters="sRGB">
<feFlood flood-opacity="0" result="BackgroundImageFix"/>
<feColorMatrix in="SourceAlpha" type="matrix" values="0 0 0 0 0 0 0 0 0 0 0 0 0 0 0 0 0 0 127 0" result="hardAlpha"/>
<feOffset dy="4"/>
<feGaussianBlur stdDeviation="2"/>
<feComposite in2="hardAlpha" operator="out"/>
<feColorMatrix type="matrix" values="0 0 0 0 0 0 0 0 0 0 0 0 0 0 0 0 0 0 0.25 0"/>
<feBlend mode="normal" in2="BackgroundImageFix" result="effect1_dropShadow_214_313"/>
<feBlend mode="normal" in="SourceGraphic" in2="effect1_dropShadow_214_313" result="shape"/>
</filter>
</defs>
</svg>
